PathFileType	4	(X/Y/Z)	Patient4_TMGait_0pt8_01_right_07.trc.trc
DataRate	CameraRate	NumFrames	NumMarkers	Units	OrigDataRate	OrigDataStartFrame	OrigNumFrames
86.956521739130	86.956521739130	6	33	mm	86.956521739130	18	       141
Frame#	Time	Sacral			L.Shoulder			Chest			R.Shoulder			Neck			R.ASIS			L.ASIS			R.Thigh.Superior			R.Thigh.Lateral			R.Thigh.Inferior			R.Patella			L.Thigh.Superior			L.Thigh.Lateral			L.Thigh.Inferior			L.Patella			L.Shank.Superior			L.Shank.Lateral			L.Shank.Inferior			R.Shank.Superior			R.Shank.Lateral			R.Shank.Inferior			R.Heel			R.Midfoot.Superior			R.Midfoot.Lateral			R.Toe			L.Heel			L.Midfoot.Lateral			L.Midfoot.Superior			L.Toe			L.Elbow			L.Wrist			R.Elbow			R.Wrist			
		X1	Y1	Z1	X2	Y2	Z2	X3	Y3	Z3	X4	Y4	Z4	X5	Y5	Z5	X6	Y6	Z6	X7	Y7	Z7	X8	Y8	Z8	X9	Y9	Z9	X10	Y10	Z10	X11	Y11	Z11	X12	Y12	Z12	X13	Y13	Z13	X14	Y14	Z14	X15	Y15	Z15	X16	Y16	Z16	X17	Y17	Z17	X18	Y18	Z18	X19	Y19	Z19	X20	Y20	Z20	X21	Y21	Z21	X22	Y22	Z22	X23	Y23	Z23	X24	Y24	Z24	X25	Y25	Z25	X26	Y26	Z26	X27	Y27	Z27	X28	Y28	Z28	X29	Y29	Z29	X30	Y30	Z30	X31	Y31	Z31	X32	Y32	Z32	X33	Y33	Z33	

18	7.775500000000	845.168724421343	992.012192383509	454.810795388999	1046.267164304616	1425.835815746797	296.130890322625	1127.324556083590	1350.489428385728	466.832012867752	1024.635146255045	1420.777990038178	632.168897070463	1017.951063138689	1483.554973571675	452.301193545978	1066.454100024071	934.627425958947	588.557435924640	1070.087532109339	953.836858138197	311.144064124948	1148.066071059447	769.446723187555	561.416916106776	1111.402994494598	645.945652827635	639.226057275538	1203.511134245847	613.403534331369	561.310110832500	1242.513930124431	535.362626875399	580.744794348260	1063.617949045224	723.494885277622	341.398312966026	943.221391150119	632.199662882518	276.942952824600	997.978092269865	537.042000090928	343.937817067904	981.373692463883	471.532682352507	353.721727429054	947.075806015853	406.780827959003	346.366023887915	845.070198984131	303.227049337387	296.739025913012	879.572058682193	188.200263291415	371.312365485648	1235.060173107381	446.415814007848	589.925899692927	1192.416170108166	327.754555121206	652.488285862580	1271.048083453997	249.150052058939	602.517601046714	1198.229250173507	53.266940820807	571.606158718810	1351.978341337305	142.122712246786	616.327439285520	1281.295388840043	57.409311328350	646.595815568506	1478.949934691796	117.720261997405	644.501336022373	738.352579828404	39.547457952703	415.969072783743	810.105041412030	36.074308468265	333.813964308125	894.789698248995	95.482517096069	359.721630372723	1021.690950438818	42.232498757916	326.722012966416	1119.907081460776	1103.470508055827	140.060118438061	1362.158035031593	1027.067522567432	189.117715463387	886.226468237708	1096.764884502469	722.068323307030	862.116714298999	837.768823430061	744.951775555565	
19	7.787000000000	847.207319991420	989.570866906099	456.590238490653	1046.695649119562	1423.967611955178	297.679967260767	1128.144242779001	1348.819991354269	468.267337898569	1025.378423821639	1418.907238933759	633.646095632420	1018.507502077241	1481.490185746418	453.823853172787	1068.917933809898	932.357812089847	589.795676992794	1071.419547568865	951.614817031750	312.181686354336	1149.451301259548	765.841743504275	563.048386233550	1110.798238427397	641.966656773484	639.705590709387	1203.333782379849	609.580003025249	562.357418162472	1241.216851456057	532.146888488332	580.514117955523	1063.571033316950	721.268895557223	342.084249711550	942.020809686125	631.017888166291	277.835515272005	995.987306383014	535.216628526736	344.660780008373	978.730088325947	469.349985521539	354.325254587566	943.168602998404	405.095973123464	346.918692445375	839.416810739806	303.277549286854	297.003524195140	872.060417895123	187.585034168265	371.294525155461	1235.047969639509	443.202451790448	589.500432698301	1193.340837237956	323.766307885591	650.994741768006	1273.377199356014	246.396691464803	601.128449939676	1203.334818561272	49.909508671759	568.986940888141	1355.619870297823	140.368322347436	614.635088765850	1285.730841062875	55.168479289846	644.580892132364	1482.712620203081	117.442625366408	643.877676104830	729.091284161863	39.925945877109	415.753115148441	800.949521168620	36.147561112511	333.744374032219	885.765824109993	95.455524707159	359.622425431111	1012.566932555479	41.802520060083	326.669982795759	1123.640827302675	1103.139828905578	141.030182189687	1368.387557674477	1038.451086314210	191.652175533325	881.201506157342	1098.529545769215	723.710947859600	850.834696851472	840.388112759524	745.908357241911	
20	7.798500000000	849.445373079151	987.089233844377	458.706428823193	1047.094024309820	1422.029611050357	299.311224239248	1129.006075230535	1347.202044358646	469.786619816848	1026.167307621629	1417.080180313071	635.212815477433	1019.062452281193	1479.413288315541	455.438646591129	1071.593645442325	930.070166519162	591.208760426573	1072.917040999071	949.297702670693	313.348368026212	1151.341179790237	762.476818125271	564.760333531758	1110.706645023045	638.052451568458	639.853329606106	1203.723957200110	605.992159802641	563.183943240808	1240.351852172285	528.690824448149	580.002261284625	1064.049860287694	719.072271522081	342.892497673846	941.449760209469	629.732337960476	278.949577618226	994.820000597210	533.288485987779	345.465125783268	976.909927258328	466.970431273631	355.029424739168	939.944779950451	403.216613948286	347.550308915419	834.228611878951	303.403217628439	297.333972993064	864.766847325424	186.958608677417	371.244127571681	1234.830014565569	439.531604477985	588.683054985032	1193.093448161725	319.690573461283	649.029203295626	1273.720213677280	242.946079542375	599.174462178756	1204.520514085184	47.054935907575	565.940146637087	1356.290592425332	137.365966256248	612.271817056233	1286.302183777777	52.654642760586	642.081244286965	1483.154426953639	114.441670186495	642.418223396193	719.821500384265	40.512429542767	415.449430889425	791.817681079185	36.265226262453	333.620322682188	876.814348403539	95.453458490668	359.448188731209	1003.486324114587	41.362879579442	326.600576939225	1127.016770292104	1102.542850918731	142.252719629920	1373.615215726575	1049.034688678000	194.233621640481	876.686766885253	1100.279106424850	725.603651031000	841.244470841360	842.889240032349	746.804046647024	
21	7.810000000000	851.872465994123	984.633488153620	461.137926857476	1047.507135576972	1420.061170314147	301.019039473614	1129.929140268562	1345.674403220953	471.394198422959	1027.014630901406	1415.346198282923	636.867571469929	1019.639080753795	1477.381255306785	457.138112172850	1074.457088544167	927.834943020521	592.813259297838	1074.604531313300	946.956394824449	314.682374194426	1153.693701014603	759.388473032213	566.528843955676	1111.108557323094	634.304482734095	639.714320371281	1204.612878848374	602.694246736954	563.767681505737	1239.900829085681	525.091500580549	579.200688167581	1065.018236915466	716.941971819297	343.809986804600	941.454870573267	628.390228730012	280.280651948108	994.445174890988	531.292965866423	346.316953997318	975.897638002313	464.433787949786	355.772377141447	937.376782627955	401.198117771861	348.221840562940	829.482904036295	303.666046766921	297.729894536279	857.704101658773	186.381913983444	371.134364061853	1234.478216688398	435.540240668866	587.525670250401	1191.948623986263	315.603274656227	646.760736524685	1272.414331277651	238.923432926780	596.777272391496	1202.247006234262	44.704419741812	562.749012215941	1354.492724337459	133.240264426026	609.298129557856	1283.585317380169	49.940392672512	639.284085183490	1480.866490091433	108.927740385424	640.038751754393	710.556838769706	41.404755492307	415.049873073169	782.710774297557	36.465010104892	333.434105709538	867.967413940931	95.483997710721	359.170480307155	994.444359169771	40.927432378968	326.513920362317	1130.010124651108	1101.677615953581	143.728102466705	1377.903436939356	1058.699896635934	196.843944710493	872.815269604902	1101.931595041737	727.694326580266	833.279427564922	845.146817194293	747.693915811634	
22	7.821500000000	854.463944479740	982.282498110538	463.844786977233	1047.981560831101	1418.114060096899	302.795512116092	1130.933445756894	1344.283776353132	473.093383801626	1027.934983896341	1413.763876095259	638.608308057460	1020.265167871783	1475.462025208510	458.912123115840	1077.476407384424	925.733268618392	594.619516032447	1076.492487658921	944.680527116787	316.230530849954	1156.445145995884	756.608836990628	568.328850845039	1111.975492725420	630.846731491457	639.386818948926	1205.905168871885	599.740342924558	564.114540132480	1239.823371019459	521.470813516777	578.152413010722	1066.424690234610	714.926983881120	344.830677315197	941.984307090204	627.041548173903	281.815391136425	994.835701424876	529.277737496178	347.186443220230	975.689427020139	461.786647828944	356.485534471048	935.444305888359	399.106594942954	348.890326262611	825.171147612595	304.139765251761	298.187463839373	850.902897858812	185.929249204491	370.937158461389	1234.059573354733	431.411371143343	586.135366141057	1190.204901251447	311.629328028242	644.405106794919	1269.847085781686	234.539418508519	594.115197166494	1197.134477711420	42.878440458757	559.692582404209	1350.778990648062	128.253280528389	605.847416054996	1278.274738049987	47.167363114122	636.403803731204	1476.489818369475	101.362207043022	636.787528617615	701.326203090742	42.727023216460	414.551024425220	773.634681723619	36.804906529786	333.180995914361	859.270008701662	95.558032750987	358.759351467158	985.430333795577	40.507714404403	326.412742486149	1132.593175729572	1100.550613811800	145.459287313294	1381.320082413830	1067.341727350849	199.467243448139	869.713878150633	1103.410024986840	729.928296846953	826.891144182763	847.075115792405	748.633297141488	
23	7.833000000000	857.177490969256	980.126962983667	466.771618501917	1048.561617634272	1416.253691696937	304.630344803759	1132.037208318345	1343.084878594731	474.885639184119	1028.942403581590	1412.399853624270	640.431321102197	1020.970742816618	1473.732971927015	460.747651010652	1080.609205287499	923.853896486445	596.629678694398	1078.567359315307	942.569307914388	318.039204415116	1159.514871018611	754.178802499233	570.134046108815	1113.277472440099	627.822755752717	639.010062395881	1207.494536430539	597.191574550966	564.262281998548	1240.068380798183	517.974801959281	576.959882843194	1068.213025739336	713.087569315834	345.959158716080	943.005675863823	625.731783271492	283.533340382842	995.986436063812	527.298654407256	348.052737379069	976.307147201099	459.077604210759	357.102730416093	934.150662325829	397.011170708715	349.514444278695	821.315013313941	304.905226775257	298.700537478274	844.420600586411	185.685110287196	370.628304947465	1233.632132156154	427.357987127936	584.664742370346	1188.149590871311	307.929058105463	642.205422507408	1266.406264776043	230.059417018322	591.403509916477	1189.884739173127	41.589963281242	557.006465979439	1345.678446275650	122.769731876504	602.123056629224	1271.093923776462	44.509202078571	633.656649672435	1470.635177895001	92.410022230319	632.860074351792	692.180114773948	44.631564530699	413.955456447499	764.604885838363	37.369913574994	332.860699779746	850.782504098961	95.692322418675	358.188106848144	976.428325588732	40.108647964997	326.302715903210	1134.734403661413	1099.180090993118	147.452274438303	1383.933452775205	1074.868400364725	202.090709166188	867.496262151964	1104.649748818931	732.252591660598	822.057289836830	848.622790904083	749.674421718233	
